<svg xmlns="http://www.w3.org/2000/svg" viewBox="0 0 64 64"><defs><linearGradient id="m" x2="1" y2=".1"><stop stop-color="#969ba4"/><stop offset=".28" stop-color="#f7f8fa"/><stop offset=".52" stop-color="#c1c5cb"/><stop offset=".76" stop-color="#e8ebef"/><stop offset="1" stop-color="#7c828b"/></linearGradient><linearGradient id="t" x2="0" y2="1"><stop stop-color="#c8cdd3"/><stop offset="1" stop-color="#626973"/></linearGradient></defs><ellipse cx="32" cy="55" rx="16" ry="3" fill="#000" opacity=".15"/><path d="m13 15 5 36c1 7 27 7 28 0l5-36" fill="url(#m)" stroke="#9da4ad" stroke-width="1"/><ellipse cx="32" cy="15" rx="19" ry="5" fill="url(#t)" stroke="#eef1f4" stroke-width="2"/><ellipse cx="32" cy="15" rx="16" ry="3" fill="#676d77"/><g fill="none" stroke="#535b65" stroke-opacity=".3"><path d="m20 23 3 26m5-25 1 27m7-27-1 27m9-28-3 26"/><path d="M16 29q16 7 32 0M17 36q15 7 30 0M18 43q14 6 28 0M19 49q13 5 26 0"/></g></svg>
