<svg xmlns="http://www.w3.org/2000/svg" viewBox="0 0 500 500"><defs><radialGradient id="s" cx="35%" cy="30%"><stop stop-color="#292b30"/><stop offset="1" stop-color="#08090c"/></radialGradient><radialGradient id="h"><stop offset=".7" stop-color="#f97328" stop-opacity="0"/><stop offset=".81" stop-color="#f97328" stop-opacity=".13"/><stop offset="1" stop-color="#f97328" stop-opacity="0"/></radialGradient></defs><circle cx="250" cy="250" r="234" fill="url(#h)"/><circle cx="250" cy="250" r="190" fill="url(#s)" stroke="#f9732850"/><path d="M 302.47 427.59 L 299.41 428.21 L 299.90 427.67 L 300.61 427.18 L 300.95 426.94 L 301.91 427.04 L 303.64 426.82 L 303.51 427.01 L 302.47 427.59 Z" fill="#2b2d31" stroke="#5d6265" stroke-width=".4"/><path d="M 266.28 365.52 L 266.71 368.64 L 267.50 369.81 L 267.14 371.05 L 266.55 371.82 L 265.52 370.37 L 264.90 371.14 L 265.45 373.00 L 265.13 374.08 L 264.24 374.69 L 263.98 376.80 L 262.65 379.69 L 261.02 383.03 L 258.98 387.48 L 257.73 390.64 L 256.30 393.22 L 253.85 393.76 L 251.22 394.69 L 249.50 394.14 L 247.11 393.36 L 246.27 392.20 L 246.04 390.23 L 244.94 388.42 L 244.64 386.77 L 245.16 385.11 L 246.58 384.72 L 246.58 383.94 L 248.05 382.15 L 248.33 380.63 L 247.59 379.48 L 246.99 377.94 L 246.72 375.66 L 247.82 374.27 L 248.24 372.67 L 249.82 372.58 L 251.60 372.06 L 252.79 371.60 L 254.19 371.55 L 256.02 370.07 L 258.68 368.44 L 259.66 367.11 L 259.24 366.00 L 260.60 366.29 L 262.41 364.41 L 262.50 362.81 L 263.59 361.59 L 264.70 362.70 L 265.53 363.80 L 266.28 365.52 Z" fill="#2b2d31" stroke="#5d6265" stroke-width=".4"/><path d="M 397.86 369.25 L 397.70 369.39 L 398.72 368.07 L 399.41 367.24 L 399.96 366.54 L 400.54 365.75 L 401.83 364.01 L 402.70 362.75 L 403.83 360.93 L 404.57 359.75 L 405.49 358.34 L 406.08 357.20 L 406.50 356.52 L 406.63 356.04 L 407.63 354.25 L 408.12 352.93 L 408.55 352.02 L 408.44 352.60 L 409.33 350.66 L 409.48 350.83 L 409.27 351.47 L 409.95 350.20 L 410.46 348.77 L 410.76 348.08 L 410.89 347.58 L 411.74 345.97 L 412.27 345.10 L 413.03 343.65 L 413.62 342.25 L 414.91 339.88 L 414.10 341.79 L 415.37 339.49 L 416.60 337.65 L 417.59 335.94 L 418.75 334.04 L 419.28 333.29 L 419.40 333.29 L 420.54 331.33 L 421.20 330.30 L 421.57 329.52 L 421.89 328.95 L 422.33 328.34 L 423.47 326.24 L 424.36 324.35 L 425.10 322.56 L 426.04 320.42 L 426.47 319.25 L 427.02 317.70 L 428.29 314.42 L 427.75 316.32 L 428.21 315.22 L 428.43 314.34 L 429.07 312.57 L 429.14 312.62 L 429.89 310.30 L 430.63 308.20 L 431.10 306.75 L 431.51 305.62 L 431.74 304.79 L 431.87 304.56 L 432.08 303.81 L 432.41 302.83 L 432.74 301.81 Z" fill="#2b2d31" stroke="#5d6265" stroke-width=".4"/><path d="M 431.19 299.62 L 430.84 300.22 L 430.08 299.87 L 431.00 298.10 L 431.28 298.31 L 431.39 298.75 L 431.19 299.62 Z" fill="#2b2d31" stroke="#5d6265" stroke-width=".4"/><path d="M 433.86 294.51 L 433.20 296.27 L 433.19 296.07 L 433.45 294.96 L 434.05 292.60 L 434.85 290.13 L 435.03 289.28 L 435.60 287.48 L 435.97 286.46 L 436.17 285.68 L 436.28 285.54 L 435.99 286.83 L 435.26 289.50 L 434.65 291.45 L 433.86 294.51 Z" fill="#2b2d31" stroke="#5d6265" stroke-width=".4"/><path d="M 429.79 296.94 L 430.01 297.26 L 430.63 296.23 L 430.65 297.17 L 429.48 299.23 L 428.73 300.51 L 428.19 301.17 L 428.82 299.04 L 429.37 298.32 L 429.79 296.94 Z" fill="#2b2d31" stroke="#5d6265" stroke-width=".4"/><path d="M 433.93 290.47 L 433.57 292.31 L 432.32 295.09 L 431.30 296.45 L 431.47 295.38 L 432.23 293.74 L 432.58 293.81 L 433.12 292.72 L 433.93 290.47 Z" fill="#2b2d31" stroke="#5d6265" stroke-width=".4"/><path d="M 419.03 304.58 L 421.70 302.55 L 422.15 301.07 L 424.39 300.21 L 424.59 301.66 L 426.31 300.33 L 427.42 300.53 L 425.97 303.08 L 424.86 303.27 L 423.74 304.47 L 422.44 305.53 L 421.28 306.15 L 419.83 306.43 L 418.81 307.03 L 418.15 307.89 L 415.53 308.85 L 415.41 307.79 L 413.97 308.65 L 415.38 305.04 L 417.26 303.78 L 418.36 303.97 L 418.95 303.70 L 419.03 304.58 Z" fill="#2b2d31" stroke="#5d6265" stroke-width=".4"/><path d="M 437.92 270.88 L 437.68 272.37 L 437.38 272.74 L 437.37 271.71 L 437.87 270.21 L 437.92 270.88 Z" fill="#2b2d31" stroke="#5d6265" stroke-width=".4"/><path d="M 439.13 265.46 L 439.07 267.28 L 438.93 267.17 L 438.69 268.04 L 438.47 268.99 L 438.21 269.81 L 438.41 267.84 L 438.86 266.06 L 439.13 265.46 Z" fill="#2b2d31" stroke="#5d6265" stroke-width=".4"/><path d="M 439.64 260.43 L 439.63 259.16 L 439.46 259.81 L 439.39 258.88 L 439.70 256.33 L 439.80 254.65 Z" fill="#2b2d31" stroke="#5d6265" stroke-width=".4"/><path d="M 437.19 258.80 L 436.78 262.87 L 436.31 264.45 L 435.65 265.13 L 434.40 267.47 L 433.68 269.04 L 433.55 271.52 L 434.25 273.04 L 434.71 270.97 L 436.07 267.48 L 435.99 268.98 L 435.70 269.12 L 435.35 271.46 L 434.65 273.79 L 435.18 276.41 L 434.98 277.68 L 435.34 279.96 L 435.15 281.94 L 434.69 283.52 L 434.52 282.98 L 435.09 279.90 L 434.27 282.34 L 434.15 281.84 L 434.35 280.51 L 433.91 279.70 L 434.14 276.67 L 433.54 278.45 L 433.39 281.85 L 433.04 286.07 L 432.45 287.33 L 432.17 287.01 L 432.67 283.89 L 432.75 281.19 L 432.37 281.72 L 432.21 280.06 L 432.68 277.55 L 432.88 274.97 L 433.38 269.76 L 433.55 268.24 L 434.22 264.87 L 434.85 264.75 L 435.78 263.51 L 436.53 261.86 L 437.07 258.35 L 437.19 258.80 Z" fill="#2b2d31" stroke="#5d6265" stroke-width=".4"/><path d="M 438.81 255.06 L 438.83 257.78 L 438.63 258.18 L 438.57 260.22 L 438.72 261.27 L 438.60 262.01 L 438.46 260.63 L 438.30 257.16 L 438.32 254.46 L 438.42 252.92 L 438.51 254.48 L 438.75 253.95 L 438.81 255.06 Z" fill="#2b2d31" stroke="#5d6265" stroke-width=".4"/><path d="M 415.02 305.18 L 413.20 306.53 L 412.01 305.04 L 409.96 304.09 L 409.31 302.77 L 408.06 301.19 L 407.24 299.51 L 405.90 296.14 L 404.22 294.58 L 403.63 292.29 L 402.86 290.31 L 401.00 289.36 L 399.83 287.29 L 398.20 286.37 L 395.81 284.05 L 395.50 282.57 L 396.86 282.03 L 400.08 280.99 L 402.05 283.06 L 403.69 284.31 L 404.82 284.98 L 406.74 287.23 L 408.62 286.14 L 410.19 287.28 L 411.26 289.16 L 412.58 289.67 L 411.88 292.60 L 412.85 292.99 L 413.46 292.65 L 413.70 294.56 L 414.22 295.83 L 415.42 295.23 L 416.11 296.56 L 415.48 300.56 L 415.02 305.18 Z" fill="#2b2d31" stroke="#5d6265" stroke-width=".4"/><path d="M 431.48 267.21 L 432.61 268.57 L 431.50 270.46 L 431.18 272.96 L 431.21 275.64 L 430.18 278.94 L 430.05 281.98 L 429.37 287.06 L 429.28 286.18 L 427.93 288.97 L 427.60 287.64 L 426.77 288.36 L 426.22 288.03 L 424.66 290.59 L 424.27 289.59 L 423.39 290.56 L 422.28 291.23 L 422.23 287.39 L 421.55 287.16 L 420.90 285.16 L 420.70 282.68 L 420.82 279.72 L 421.62 276.97 L 422.68 277.12 L 423.71 275.60 L 423.88 272.77 L 424.41 271.67 L 425.90 269.52 L 426.63 266.20 L 427.07 263.66 L 427.43 262.01 L 428.24 259.26 L 428.85 256.16 L 429.10 253.13 L 429.51 252.60 L 430.21 253.49 L 430.40 254.76 L 431.13 254.77 L 431.99 254.61 L 432.04 255.90 L 431.44 256.92 L 431.73 258.18 L 431.11 260.16 L 430.73 263.65 L 431.60 265.59 L 431.48 267.21 Z" fill="#2b2d31" stroke="#5d6265" stroke-width=".4"/><path d="M 435.83 236.06 L 436.19 237.94 L 436.45 239.56 L 436.64 242.79 L 436.05 240.18 L 436.01 242.33 L 436.45 244.15 L 436.45 245.95 L 435.57 245.74 L 435.13 243.91 L 435.12 242.07 L 434.52 241.46 L 434.49 243.13 L 434.16 243.63 L 433.85 246.30 L 433.61 245.62 L 433.54 242.55 L 433.85 240.87 L 434.04 239.01 L 434.48 239.92 L 434.82 238.10 L 434.69 236.53 L 435.08 235.52 L 434.63 233.26 L 435.31 233.63 L 435.62 235.04 L 435.83 236.06 Z" fill="#2b2d31" stroke="#5d6265" stroke-width=".4"/><path d="M 361.61 293.25 L 359.33 294.64 L 357.88 292.52 L 357.04 288.13 L 357.78 282.65 L 359.79 283.87 L 361.24 285.74 L 362.80 288.63 L 362.66 292.02 L 361.61 293.25 Z" fill="#2b2d31" stroke="#5d6265" stroke-width=".4"/><path d="M 433.50 233.56 L 433.46 235.02 L 433.60 237.35 L 433.55 238.65 L 432.75 237.36 L 432.75 236.28 L 432.76 235.10 L 432.47 233.08 L 432.80 232.19 L 433.10 234.43 L 432.98 230.55 L 433.50 233.56 Z" fill="#2b2d31" stroke="#5d6265" stroke-width=".4"/><path d="M 429.78 243.55 L 428.95 248.15 L 429.10 245.39 L 429.47 242.58 L 429.64 239.71 L 429.51 236.01 L 430.16 238.27 L 429.89 240.79 L 429.78 243.55 Z" fill="#2b2d31" stroke="#5d6265" stroke-width=".4"/><path d="M 431.07 231.39 L 431.71 231.56 L 432.14 230.73 L 432.40 232.02 L 432.34 233.91 L 432.07 235.64 L 431.76 234.27 L 431.50 232.64 L 431.07 231.39 Z" fill="#2b2d31" stroke="#5d6265" stroke-width=".4"/><path d="M 433.19 225.90 L 434.07 228.89 L 433.49 229.10 L 433.71 230.08 L 434.22 231.63 L 434.08 232.93 L 433.64 230.86 L 433.43 231.09 L 432.95 229.47 L 433.35 228.94 L 433.09 227.82 L 432.21 226.31 L 432.78 225.13 L 433.19 225.90 Z" fill="#2b2d31" stroke="#5d6265" stroke-width=".4"/><path d="M 429.99 228.29 L 430.39 231.24 L 429.71 230.28 L 428.75 228.62 L 429.45 227.64 L 429.99 228.29 Z" fill="#2b2d31" stroke="#5d6265" stroke-width=".4"/><path d="M 425.07 212.24 L 425.81 212.32 L 425.76 211.17 L 426.08 211.81 L 426.38 213.24 L 427.31 214.95 L 427.90 217.76 L 427.78 219.50 L 428.35 222.12 L 429.17 224.23 L 429.64 223.89 L 429.86 222.97 L 431.11 223.03 L 431.46 224.79 L 431.84 225.10 L 432.11 226.62 L 431.26 226.14 L 430.62 225.04 L 430.72 226.47 L 429.82 225.48 L 429.26 227.09 L 428.70 227.05 L 428.41 225.74 L 428.46 224.57 L 428.03 224.26 L 428.22 225.51 L 427.35 224.40 L 426.87 223.27 L 426.00 220.44 L 426.62 220.92 L 425.25 216.10 L 424.61 212.99 L 425.07 212.24 Z" fill="#2b2d31" stroke="#5d6265" stroke-width=".4"/><path d="M 413.58 224.96 L 412.88 227.43 L 411.46 227.42 L 410.59 224.82 L 410.82 222.88 L 411.99 220.77 L 412.75 220.18 L 413.43 221.08 L 413.31 222.93 L 413.58 224.96 Z" fill="#2b2d31" stroke="#5d6265" stroke-width=".4"/><path d="M 420.09 199.79 L 420.78 202.71 L 419.34 200.87 L 418.32 198.84 L 417.48 195.28 L 417.03 192.15 L 417.76 192.47 L 418.45 194.41 L 420.09 199.79 Z" fill="#2b2d31" stroke="#5d6265" stroke-width=".4"/><path d="M 407.24 152.97 L 407.87 153.69 L 408.97 155.85 L 408.36 155.50 L 408.75 156.67 L 409.78 158.47 L 409.20 158.47 L 408.34 157.25 L 407.30 155.11 L 407.57 154.76 L 406.81 153.24 L 407.24 152.97 Z" fill="#2b2d31" stroke="#5d6265" stroke-width=".4"/><path d="M 222.07 210.53 L 220.13 211.77 L 220.25 212.39 L 220.31 212.66 L 217.42 213.75 L 216.17 213.21 L 215.71 211.85 L 216.99 211.85 L 217.17 211.85 L 217.65 211.10 L 219.56 211.30 L 222.07 210.53 Z" fill="#2b2d31" stroke="#5d6265" stroke-width=".4"/><path d="M 193.96 207.17 L 195.10 208.46 L 197.11 208.58 L 198.96 209.08 L 198.79 209.63 L 200.26 209.44 L 199.76 210.34 L 196.01 210.08 L 196.15 209.56 L 193.19 208.45 L 193.96 207.17 Z" fill="#2b2d31" stroke="#5d6265" stroke-width=".4"/><path d="M 176.55 195.43 L 174.94 197.69 L 174.97 198.74 L 173.98 200.23 L 172.61 198.64 L 171.56 198.02 L 168.98 195.65 L 169.85 194.15 L 172.35 195.09 L 174.75 195.30 L 176.55 195.43 Z" fill="#2b2d31" stroke="#5d6265" stroke-width=".4"/><path d="M 166.41 182.81 L 166.74 185.30 L 164.83 189.22 L 163.95 188.76 L 162.69 189.52 L 162.24 188.48 L 163.68 184.81 L 163.96 182.95 L 165.00 183.44 L 166.41 182.81 Z" fill="#2b2d31" stroke="#5d6265" stroke-width=".4"/><path d="M 400.63 138.78 L 402.31 141.06 L 403.24 142.06 L 404.72 144.31 L 405.89 146.86 L 406.27 148.96 L 408.49 153.39 L 407.80 153.18 L 406.40 151.36 L 406.75 153.84 L 407.50 156.36 L 407.34 157.72 L 408.86 158.47 L 411.76 163.65 L 412.35 165.51 L 411.58 165.04 L 410.06 162.38 L 409.39 162.34 L 408.05 161.01 L 407.73 159.15 L 406.68 156.95 L 405.88 154.52 L 404.68 151.99 L 404.23 149.06 L 404.62 148.39 L 401.06 142.96 L 401.95 143.38 L 399.73 139.44 L 398.83 137.94 L 396.17 134.48 L 393.82 132.13 L 392.36 130.30 L 391.69 128.83 L 394.51 131.32 L 396.22 133.16 L 398.56 136.41 L 400.63 138.78 Z" fill="#2b2d31" stroke="#5d6265" stroke-width=".4"/><path d="M 168.32 180.19 L 166.67 182.31 L 166.02 181.43 L 166.44 179.29 L 167.33 178.30 L 169.10 177.54 L 168.32 180.19 Z" fill="#2b2d31" stroke="#5d6265" stroke-width=".4"/><path d="M 384.63 120.46 L 384.84 120.22 L 383.59 118.70 L 386.03 120.75 L 387.25 122.75 L 389.77 125.69 L 388.75 125.80 L 391.32 128.69 L 391.62 129.83 L 389.45 127.81 L 387.61 125.68 L 387.22 124.52 L 383.97 121.38 L 382.07 119.52 L 384.13 120.51 L 384.63 120.46 Z" fill="#2b2d31" stroke="#5d6265" stroke-width=".4"/><path d="M 126.20 106.98 L 125.38 107.86 L 124.80 108.63 L 124.20 108.93 L 124.31 108.72 L 126.20 106.84 L 127.15 106.03 L 127.57 105.82 L 126.20 106.98 Z" fill="#2b2d31" stroke="#5d6265" stroke-width=".4"/><path d="M 130.92 104.17 L 131.19 103.78 L 132.81 102.18 L 134.59 100.64 L 134.54 100.79 L 133.05 102.28 L 131.38 103.83 L 130.92 104.17 Z" fill="#2b2d31" stroke="#5d6265" stroke-width=".4"/><path d="M 131.89 106.25 L 129.98 107.21 L 130.55 107.17 L 129.74 108.12 L 129.02 108.44 L 127.99 109.69 L 128.43 109.65 L 127.33 111.07 L 125.62 112.15 L 125.82 112.45 L 124.47 113.55 L 122.87 115.01 L 120.88 116.32 L 120.94 115.98 L 121.62 115.02 L 123.51 113.66 L 123.91 113.17 L 122.28 113.76 L 122.61 113.15 L 123.44 112.91 L 124.42 111.60 L 124.77 110.75 L 125.84 108.98 L 126.63 108.31 L 127.14 108.23 L 128.02 107.37 L 129.04 107.04 L 132.49 105.17 L 133.66 104.73 L 134.18 104.86 L 133.89 105.32 L 133.27 105.62 L 131.89 106.25 Z" fill="#2b2d31" stroke="#5d6265" stroke-width=".4"/><path d="M 368.85 108.24 L 372.94 110.54 L 372.62 111.23 L 376.37 114.47 L 378.54 115.55 L 380.21 116.93 L 379.02 116.45 L 381.05 118.58 L 379.11 117.10 L 376.72 115.11 L 374.10 113.17 L 372.15 111.57 L 368.76 109.11 L 366.37 107.87 L 362.77 105.46 L 361.33 103.95 L 360.20 103.51 L 359.71 102.93 L 361.40 103.80 L 363.84 105.13 L 366.40 106.83 L 368.85 108.24 Z" fill="#2b2d31" stroke="#5d6265" stroke-width=".4"/><path d="M 158.62 142.00 L 155.20 142.31 L 153.82 140.97 L 157.01 138.94 L 158.61 136.12 L 161.86 135.10 L 163.74 134.44 L 164.80 134.85 L 164.78 137.00 L 162.69 138.37 L 161.41 140.24 L 158.62 142.00 Z" fill="#2b2d31" stroke="#5d6265" stroke-width=".4"/><path d="M 192.64 143.66 L 190.49 145.56 L 189.68 143.62 L 190.10 142.46 L 192.88 142.20 L 192.64 143.66 Z" fill="#2b2d31" stroke="#5d6265" stroke-width=".4"/><path d="M 176.50 128.70 L 172.98 130.68 L 174.46 130.91 L 175.77 131.51 L 173.78 133.33 L 170.84 135.01 L 172.01 135.75 L 170.72 139.49 L 171.33 140.27 L 170.02 143.53 L 169.68 144.71 L 171.08 145.90 L 169.75 147.50 L 168.47 147.99 L 168.13 149.59 L 165.84 150.45 L 163.88 149.62 L 160.91 149.28 L 160.62 148.47 L 158.80 149.27 L 157.74 148.37 L 156.03 148.91 L 155.70 148.03 L 159.75 146.27 L 161.39 146.28 L 159.60 144.85 L 160.02 143.66 L 162.02 143.53 L 162.38 141.82 L 163.95 140.29 L 165.70 141.42 L 167.05 140.04 L 167.43 138.07 L 166.27 136.91 L 166.54 136.11 L 167.92 135.23 L 168.10 134.37 L 166.46 135.20 L 168.43 132.84 L 168.94 131.34 L 171.60 129.11 L 174.22 127.65 L 174.95 128.26 L 176.50 128.70 Z" fill="#2b2d31" stroke="#5d6265" stroke-width=".4"/><path d="M 176.67 76.20 L 175.75 76.39 L 176.35 76.09 L 177.30 75.73 L 177.42 75.71 L 177.80 75.69 L 177.38 75.92 L 176.67 76.20 Z" fill="#2b2d31" stroke="#5d6265" stroke-width=".4"/><path d="M 180.34 74.47 L 180.14 74.26 L 180.88 73.90 L 181.71 73.62 L 182.06 73.68 L 180.77 74.35 L 180.34 74.47 Z" fill="#2b2d31" stroke="#5d6265" stroke-width=".4"/><path d="M 300.20 66.92 L 299.81 66.77 L 298.88 66.52 L 298.36 66.33 L 297.36 66.04 L 297.64 66.11 L 298.93 66.45 L 299.50 66.63 L 299.65 66.70 L 300.81 67.03 L 300.94 67.09 L 300.20 66.92 Z" fill="#2b2d31" stroke="#5d6265" stroke-width=".4"/><path d="M 190.15 71.31 L 188.97 71.60 L 188.87 71.75 L 187.75 72.13 L 185.99 72.80 L 184.26 73.51 L 183.04 73.83 L 182.60 74.13 L 181.19 74.69 L 181.19 74.46 L 183.14 73.56 L 184.70 73.03 L 184.37 72.87 L 184.55 72.52 L 186.20 72.02 L 187.31 71.47 L 187.56 71.59 L 189.21 71.25 L 190.98 70.97 L 190.15 71.31 Z" fill="#2b2d31" stroke="#5d6265" stroke-width=".4"/><path d="M 184.60 106.54 L 182.75 107.63 L 181.78 109.46 L 178.87 110.28 L 175.07 110.09 L 174.02 109.97 L 173.57 108.98 L 172.79 106.88 L 174.56 106.63 L 174.75 104.60 L 176.22 105.20 L 177.01 104.67 L 176.60 103.18 L 178.76 102.44 L 179.94 102.95 L 178.90 104.90 L 181.26 104.70 L 181.25 105.81 L 183.70 105.63 L 184.60 106.54 Z" fill="#2b2d31" stroke="#5d6265" stroke-width=".4"/><path d="M 186.67 74.65 L 187.29 74.18 L 188.73 73.82 L 189.90 73.74 L 189.68 74.06 L 188.46 74.54 L 187.31 74.76 L 187.02 74.79 L 186.67 74.65 Z" fill="#2b2d31" stroke="#5d6265" stroke-width=".4"/><path d="M 298.55 67.20 L 298.34 67.03 L 297.17 66.93 L 294.69 66.08 L 294.25 65.66 L 296.12 66.08 L 298.11 66.66 L 299.93 66.97 L 300.76 67.19 L 301.76 67.52 L 301.95 67.67 L 302.81 68.06 L 302.19 67.99 L 302.91 68.32 L 304.32 68.79 L 304.13 68.88 L 303.14 68.66 L 304.80 69.21 L 305.36 69.21 L 306.82 69.60 L 298.23 68.38 L 297.71 67.70 L 297.24 67.02 L 298.55 67.20 Z" fill="#2b2d31" stroke="#5d6265" stroke-width=".4"/><path d="M 207.04 66.53 L 206.93 66.38 L 208.77 65.94 L 209.34 65.72 L 211.46 65.31 L 211.20 65.54 L 211.36 65.72 L 209.87 66.03 L 208.98 66.21 L 208.34 66.31 L 207.04 66.53 Z" fill="#2b2d31" stroke="#5d6265" stroke-width=".4"/><path d="M 294.11 68.11 L 295.06 68.46 L 294.48 68.48 L 292.60 68.06 L 294.11 68.11 Z" fill="#2b2d31" stroke="#5d6265" stroke-width=".4"/><path d="M 292.96 67.70 L 294.11 68.11 L 292.60 68.06 L 292.41 68.02 L 291.78 67.76 L 291.28 67.35 L 291.64 67.38 L 292.96 67.70 Z" fill="#2b2d31" stroke="#5d6265" stroke-width=".4"/><path d="M 203.40 68.10 L 201.18 68.29 L 201.77 68.59 L 199.35 69.15 L 197.93 69.24 L 195.58 69.82 L 196.35 69.98 L 197.78 70.00 L 200.32 69.75 L 199.10 70.27 L 197.69 70.85 L 195.52 71.51 L 194.23 71.71 L 193.46 71.61 L 191.61 72.11 L 190.51 72.26 L 190.37 71.74 L 191.17 71.23 L 192.76 70.68 L 191.86 70.76 L 190.83 70.72 L 190.13 70.80 L 189.78 70.63 L 191.09 70.06 L 191.02 69.93 L 189.75 70.23 L 190.77 69.80 L 190.54 69.70 Z" fill="#2b2d31" stroke="#5d6265" stroke-width=".4"/><path d="M 157.86 83.93 L 159.80 82.87 L 159.15 83.37 L 159.61 83.32 L 160.71 82.91 L 162.36 82.15 L 165.02 80.87 L 167.95 79.42 L 169.38 79.14 L 171.96 78.11 L 176.07 76.68 L 176.06 76.87 L 174.00 78.00 L 172.96 78.64 L 173.00 78.87 L 171.45 79.67 L 169.06 80.88 L 167.83 81.42 L 166.40 82.54 L 164.22 83.36 L 160.69 84.89 L 159.66 85.65 L 157.63 86.78 L 158.15 87.09 L 160.52 86.45 L 161.41 86.36 L 158.56 87.87 L 154.43 90.27 L 150.64 92.59 L 149.18 93.15 L 147.01 94.89 L 145.06 96.37 L 143.66 97.95 L 142.55 98.91 L 140.16 100.52 L 139.51 101.34 L 138.37 102.26 L 135.43 104.16 L 134.75 104.19 L 134.16 104.19 L 134.03 103.42 L 132.65 103.74 L 133.23 102.61 L 135.13 100.51 L 136.21 99.28 L 136.83 98.55 L 135.81 99.00 L 135.85 98.67 L 134.16 99.60 L 133.25 100.16 L 132.78 100.59 L 134.22 99.78 L 134.37 100.16 L 133.46 101.23 L 131.65 102.78 L 130.78 103.11 L 128.06 105.22 L 126.10 106.82 L 124.01 108.87 L 123.20 110.09 L 125.16 108.94 L 123.44 110.32 L 122.21 111.57 L 121.48 111.67 L 121.68 110.76 L 121.54 110.61 L 120.89 110.93 L 121.69 110.10 L 123.55 108.51 L 123.95 108.56 L 125.16 107.19 L 125.85 106.43 L 124.99 107.17 L 124.91 107.09 Z" fill="#2b2d31" stroke="#5d6265" stroke-width=".4"/><path d="M 60.60 263.57 L 60.97 265.46 L 61.61 269.93 L 62.41 275.01 L 62.86 276.90 L 63.31 278.15 L 63.60 279.58 L 64.24 283.83 L 64.58 285.85 L 65.12 290.23 L 65.18 291.49 L 65.31 293.74 L 65.78 296.22 Z" fill="#2b2d31" stroke="#5d6265" stroke-width=".4"/><path d="M 230.38 62.93 L 230.31 62.72 L 228.63 63.13 L 226.74 63.21 L 226.40 63.54 L 225.14 63.61 L 223.02 63.54 L 223.15 63.72 L 225.25 63.83 L 224.71 64.03 L 223.63 64.17 L 222.05 64.29 L 219.97 64.24 L 218.56 64.21 L 216.19 64.56 L 213.69 64.99 L 213.02 64.96 L 214.48 64.53 L 213.21 64.70 L 212.93 64.62 L 215.03 64.16 L 217.22 63.75 L 218.34 63.48 L 219.85 63.05 L 222.88 62.44 L 224.31 62.19 L 225.45 62.13 L 227.25 61.92 L 228.12 61.77 L 230.25 61.70 L 229.63 61.81 L 228.17 62.07 L 226.63 62.29 L 225.48 62.54 L 227.74 62.26 L 229.88 61.92 L 231.39 61.73 L 232.28 61.75 L 230.29 62.15 L 231.84 61.94 L 233.84 61.79 L 233.66 62.11 L 233.36 62.32 L 231.51 62.86 L 230.38 62.93 Z" fill="#2b2d31" stroke="#5d6265" stroke-width=".4"/><path d="M 222.48 64.64 L 222.17 64.31 L 224.56 64.19 L 224.49 64.30 L 223.45 64.55 L 222.48 64.64 Z" fill="#2b2d31" stroke="#5d6265" stroke-width=".4"/><path d="M 202.83 72.24 L 202.04 72.33 L 202.67 71.96 L 203.29 71.60 L 203.54 71.26 L 203.86 71.15 L 205.85 70.73 L 206.75 70.71 L 206.66 70.85 L 205.18 71.58 L 202.83 72.24 Z" fill="#2b2d31" stroke="#5d6265" stroke-width=".4"/><path d="M 208.81 69.02 L 206.81 69.28 L 208.18 69.52 L 207.72 70.25 L 204.10 70.90 L 202.51 70.96 L 202.12 71.57 L 202.65 71.81 L 200.13 72.70 L 198.12 73.33 L 196.86 73.53 L 196.56 74.15 L 194.27 74.81 L 192.04 75.97 L 190.49 76.54 L 187.39 77.48 L 186.91 76.94 L 183.95 78.43 L 182.62 79.34 L 179.36 80.74 L 178.55 81.58 L 176.63 82.02 L 174.04 82.10 L 175.82 81.08 L 179.30 79.50 L 179.60 78.95 L 178.07 79.31 L 175.90 80.32 L 173.92 81.43 L 172.96 81.89 L 169.87 83.16 L 168.05 83.65 L 169.47 82.67 L 173.09 80.55 L 169.92 82.10 L 167.67 83.27 L 166.63 83.71 L 169.32 81.75 L 172.25 80.03 L 174.35 78.96 L 174.86 78.93 L 177.23 77.75 L 179.51 76.66 L 178.74 76.87 L 180.49 75.53 L 182.02 74.90 L 183.36 74.76 L 182.03 75.65 L 180.94 76.57 L 182.11 76.17 L 183.20 76.03 L 185.01 76.04 L 186.37 75.66 L 187.53 75.30 L 189.75 74.38 L 191.90 73.38 L 192.17 73.53 L 194.46 72.86 L 195.15 72.49 L 196.53 72.08 L 196.11 71.97 L 196.99 71.32 L 200.10 69.93 L 202.36 69.14 L 203.93 68.58 L 205.36 68.27 L 205.60 68.55 L 206.67 68.11 L 209.16 67.97 L 210.63 68.19 L 210.88 68.49 L 209.90 69.22 L 208.81 69.02 Z" fill="#2b2d31" stroke="#5d6265" stroke-width=".4"/><path d="M 219.95 65.59 L 218.65 65.81 L 217.56 66.23 L 216.81 66.25 L 216.59 65.95 L 214.58 66.27 L 212.96 66.15 L 213.59 65.71 L 214.58 65.47 L 215.86 65.33 L 219.32 64.86 L 219.85 64.93 L 217.96 65.35 L 220.00 65.23 L 219.95 65.59 Z" fill="#2b2d31" stroke="#5d6265" stroke-width=".4"/><path d="M 304.26 80.48 L 304.48 81.07 L 304.33 81.78 L 304.18 81.81 L 302.85 81.16 L 302.42 80.63 L 303.45 80.35 L 304.26 80.48 Z" fill="#2b2d31" stroke="#5d6265" stroke-width=".4"/><path d="M 212.49 67.15 L 211.74 66.83 L 212.71 66.52 L 214.95 66.44 L 215.93 66.50 L 216.41 66.69 L 216.27 66.97 L 214.78 67.48 L 212.98 67.94 L 212.04 67.48 L 212.49 67.15 Z" fill="#2b2d31" stroke="#5d6265" stroke-width=".4"/><path d="M 234.79 61.63 L 237.17 61.24 L 238.01 61.31 L 240.68 61.30 L 240.50 61.43 L 240.18 61.78 L 239.76 62.11 L 241.00 62.31 L 238.14 62.63 L 236.74 62.67 L 234.48 62.90 L 233.35 62.90 L 231.97 62.87 L 232.84 62.63 L 234.48 62.10 L 235.12 61.75 L 234.79 61.63 Z" fill="#2b2d31" stroke="#5d6265" stroke-width=".4"/><path d="M 297.07 76.88 L 298.56 77.45 L 298.61 77.96 L 297.71 78.39 L 296.65 78.15 L 296.79 77.60 L 297.07 76.88 Z" fill="#2b2d31" stroke="#5d6265" stroke-width=".4"/><path d="M 217.45 67.33 L 216.99 67.13 L 218.12 66.81 L 219.46 66.60 L 220.00 66.83 L 219.63 67.20 L 218.35 67.31 L 217.45 67.33 Z" fill="#2b2d31" stroke="#5d6265" stroke-width=".4"/><path d="M 296.64 78.53 L 299.10 79.21 L 299.43 80.48 L 300.30 81.23 L 298.31 81.46 L 296.08 80.80 L 295.42 80.25 L 295.38 79.42 L 296.64 78.53 Z" fill="#2b2d31" stroke="#5d6265" stroke-width=".4"/><path d="M 224.04 66.80 L 222.67 66.78 L 221.65 66.63 L 220.52 66.33 L 221.47 65.97 L 222.52 65.80 L 223.56 65.99 L 224.55 65.66 L 225.93 65.93 L 225.17 66.11 L 224.82 66.50 L 223.83 66.74 L 224.04 66.80 Z" fill="#2b2d31" stroke="#5d6265" stroke-width=".4"/><path d="M 229.58 64.98 L 228.78 64.89 L 228.39 65.09 L 227.58 65.24 L 226.69 65.07 L 226.40 64.80 L 228.78 64.20 L 230.24 63.67 L 231.47 63.45 L 231.95 63.57 L 230.83 64.03 L 234.29 63.41 L 235.60 63.35 L 235.50 63.97 L 235.10 64.22 L 232.65 64.37 L 230.57 64.33 L 229.16 64.54 L 231.51 64.77 L 231.37 65.07 L 230.50 65.15 L 229.58 64.98 Z" fill="#2b2d31" stroke="#5d6265" stroke-width=".4"/><path d="M 263.62 111.07 L 263.04 111.32 L 259.44 111.29 L 258.95 110.31 L 256.94 109.81 L 256.60 108.62 L 257.55 108.09 L 257.29 106.90 L 258.77 104.95 L 257.87 104.75 L 259.53 102.75 L 259.02 101.83 L 260.52 100.60 L 262.57 99.04 L 264.87 98.35 L 265.69 97.45 L 266.88 96.97 L 267.88 97.64 L 267.80 98.32 L 265.73 99.71 L 263.80 100.98 L 261.98 103.22 L 261.32 105.40 L 260.41 107.60 L 261.09 109.41 L 263.62 111.07 Z" fill="#2b2d31" stroke="#5d6265" stroke-width=".4"/><path d="M 222.55 67.65 L 221.24 67.77 L 220.14 68.18 L 218.93 68.29 L 218.22 68.16 L 217.05 68.38 L 216.14 68.49 L 215.27 68.81 L 214.26 69.16 L 213.94 69.59 L 213.11 70.12 L 212.13 70.55 L 210.63 70.84 L 209.43 70.92 L 209.05 70.75 L 209.27 70.33 L 210.27 69.96 L 211.52 69.16 L 212.71 68.61 L 213.98 68.20 L 216.38 67.58 L 217.78 67.60 L 218.92 67.69 L 220.46 67.58 L 221.95 67.19 L 223.26 67.07 L 223.86 67.28 L 222.55 67.65 Z" fill="#2b2d31" stroke="#5d6265" stroke-width=".4"/><path d="M 236.90 64.79 L 236.19 64.34 L 236.40 64.07 L 237.04 63.96 L 238.07 63.56 L 239.19 63.35 L 240.41 63.37 L 240.41 63.37 L 239.67 63.92 L 238.75 64.46 L 237.68 64.58 L 236.90 64.79 Z" fill="#2b2d31" stroke="#5d6265" stroke-width=".4"/><path d="M 287.80 89.08 L 289.31 89.65 L 288.93 89.08 L 289.92 88.28 L 292.05 88.22 L 293.41 88.42 L 294.89 89.14 L 295.43 89.86 L 296.14 91.45 L 296.71 92.10 L 297.59 91.88 L 298.87 91.72 L 298.63 91.15 L 300.71 91.83 L 300.09 91.33 L 300.13 90.55 L 301.55 89.60 L 303.04 90.08 L 304.47 88.66 L 302.10 87.78 L 303.02 87.18 L 303.23 86.57 L 305.08 86.49 L 307.15 86.97 L 308.39 87.66 L 310.99 87.99 L 312.39 87.74 L 309.16 86.23 L 310.63 86.00 L 309.80 85.01 L 310.71 84.47 L 309.79 83.90 L 310.11 83.32 L 307.25 82.85 L 305.77 81.97 L 306.23 78.82 L 307.81 78.84 L 309.31 78.22 L 307.26 76.44 L 306.89 75.71 L 307.69 75.57 L 309.82 75.99 L 310.01 75.61 L 308.75 74.95 L 307.71 74.20 L 307.15 73.52 L 305.69 72.71 L 306.84 72.35 L 305.18 71.74 L 304.11 71.84 L 302.69 71.53 L 301.20 70.43 L 299.54 69.68 L 298.41 68.77 L 298.23 68.38 L 306.82 69.60 L 306.84 69.61 L 309.05 70.33 L 310.15 70.84 L 310.44 70.72 L 311.61 70.88 L 311.70 70.82 L 312.44 70.99 L 313.28 71.26 L 314.78 71.98 L 319.28 73.79 L 320.43 74.31 L 323.54 75.60 L 326.36 76.86 L 327.78 77.43 L 327.48 77.64 L 331.70 79.80 L 331.17 79.73 L 333.04 80.68 L 333.79 81.35 L 335.70 82.19 L 339.09 83.94 L 340.07 84.35 L 339.69 83.87 L 343.37 85.59 L 344.26 86.25 L 346.66 87.55 L 347.35 87.79 L 350.07 89.66 L 353.13 91.43 L 354.94 92.87 L 357.63 94.54 L 361.00 97.04 L 359.62 96.29 L 356.36 94.49 L 351.15 91.83 L 347.27 89.69 L 345.17 88.38 L 343.92 87.78 L 342.28 86.50 L 337.77 83.97 L 333.86 81.88 L 330.46 80.09 L 326.25 78.44 L 327.36 79.17 L 329.93 80.22 L 334.59 82.73 L 331.90 82.02 L 334.40 83.88 L 340.36 87.24 L 341.54 87.41 L 343.48 89.18 L 344.54 90.34 L 342.53 89.41 L 342.81 90.24 L 344.68 91.68 L 345.28 93.52 L 346.97 96.17 L 352.99 101.39 L 359.71 108.19 L 360.00 107.18 L 361.66 107.88 L 362.16 107.49 L 360.75 106.13 L 360.76 105.38 L 363.41 106.09 L 365.63 107.52 L 368.38 109.93 L 371.45 112.18 L 375.54 115.59 L 379.33 119.79 L 381.04 121.50 L 383.94 125.19 L 386.69 128.95 L 388.05 130.87 L 389.34 133.49 L 389.32 134.14 L 388.16 133.67 L 389.61 136.65 L 390.33 137.57 L 390.12 137.81 L 390.78 139.03 L 391.46 140.13 L 393.04 141.79 L 393.39 142.84 L 393.72 143.44 L 394.25 144.54 L 394.40 145.62 L 394.83 146.71 L 395.72 147.81 L 395.91 148.20 L 396.38 148.19 L 397.46 148.68 L 400.10 150.69 L 401.46 152.04 L 403.71 154.93 L 404.66 156.75 L 404.75 158.24 L 405.25 160.19 L 405.06 161.40 L 404.00 160.11 L 402.65 157.96 L 400.46 155.77 L 400.42 154.55 L 398.45 153.11 L 397.87 153.14 L 398.20 153.74 L 398.23 154.26 L 397.84 153.82 L 397.54 153.86 L 397.10 153.74 L 396.33 152.34 L 396.20 151.80 L 395.78 151.44 L 394.78 149.83 L 394.41 149.49 L 393.93 149.82 L 393.15 149.63 L 393.05 151.78 L 393.60 153.71 L 393.51 155.50 L 392.89 153.78 L 391.97 153.00 L 391.03 150.52 L 389.63 149.74 L 389.85 151.48 L 390.56 154.37 L 391.45 156.64 L 390.83 157.75 L 391.37 159.48 L 393.11 160.72 L 394.04 160.32 L 394.93 161.46 L 396.06 161.41 L 395.42 158.39 L 396.74 158.48 L 397.17 157.87 L 398.29 159.06 L 397.97 161.28 L 398.70 163.19 L 398.97 165.55 L 399.89 167.97 L 401.66 168.30 L 403.69 170.54 L 405.71 172.36 L 407.47 173.71 L 408.70 175.77 L 408.74 177.23 L 409.77 178.44 L 410.66 178.63 L 411.85 181.07 L 412.91 183.59 L 412.66 184.49 L 413.74 188.41 L 414.99 193.12 L 415.84 197.67 L 415.82 201.99 L 415.52 206.11 L 414.50 207.77 L 414.37 209.81 L 413.61 209.24 L 413.55 211.39 L 412.48 214.51 L 411.34 216.19 L 412.04 219.78 L 411.38 220.59 L 410.26 218.69 L 410.15 217.24 L 408.00 217.79 L 407.52 218.81 L 406.52 222.91 L 406.22 226.73 L 406.55 229.11 L 408.69 231.50 L 411.22 234.47 L 413.06 235.32 L 414.56 237.09 L 416.58 242.25 L 417.53 247.84 L 416.71 250.86 L 415.36 254.20 L 414.52 257.74 L 412.95 262.07 L 412.07 260.50 L 412.21 258.08 L 410.70 257.16 L 409.22 257.66 L 408.24 256.50 L 406.78 253.85 L 404.93 253.41 L 403.40 254.41 L 403.18 251.80 L 401.58 252.77 L 402.10 256.29 L 401.88 261.43 L 401.69 264.54 L 402.15 266.73 L 403.40 266.12 L 404.54 268.51 L 405.19 271.00 L 406.42 272.16 L 407.57 271.85 L 408.66 272.87 L 409.10 272.90 L 410.31 274.10 L 411.22 275.68 L 411.46 277.68 L 411.37 279.20 L 411.60 280.15 L 411.81 281.88 L 412.46 282.31 L 413.22 284.56 L 413.21 285.61 L 412.00 286.63 L 410.28 285.46 L 408.05 284.37 L 407.77 282.94 L 406.58 281.53 L 406.15 279.13 L 405.34 277.85 L 405.35 275.48 L 404.81 274.41 L 403.94 273.65 L 403.45 272.30 L 402.23 271.12 L 401.11 270.17 L 401.01 272.18 L 400.43 270.65 L 400.39 268.59 L 400.55 265.28 L 400.01 263.06 L 400.21 260.34 L 399.24 258.85 L 398.76 255.35 L 397.66 254.15 L 396.25 250.74 L 395.01 246.96 L 393.56 244.81 L 392.64 247.05 L 390.86 250.44 L 389.65 250.72 L 388.21 250.59 L 388.03 246.34 L 386.88 243.59 L 384.33 240.71 L 384.29 239.46 L 382.97 239.61 L 380.79 237.70 L 379.73 236.32 L 379.16 234.76 L 378.33 233.42 L 376.91 231.96 L 374.92 232.66 L 375.49 233.88 L 375.30 235.92 L 374.20 235.66 L 374.04 236.36 L 373.33 236.26 L 372.40 236.32 L 372.39 237.60 L 370.86 238.15 L 368.24 239.85 L 368.97 242.20 L 368.19 244.54 L 365.28 247.88 L 363.38 252.56 L 361.93 255.18 L 359.83 258.07 L 360.09 259.55 L 358.96 260.73 L 356.84 262.57 L 355.66 263.09 L 355.26 265.77 L 356.43 269.78 L 356.94 272.40 L 356.21 275.76 L 356.82 281.17 L 355.45 281.72 L 354.46 284.48 L 355.39 285.30 L 352.99 286.87 L 352.25 289.27 L 351.21 290.47 L 348.34 288.18 L 346.64 284.05 L 345.25 281.09 L 344.11 279.81 L 342.28 277.08 L 341.11 273.22 L 340.38 271.32 L 337.25 267.45 L 335.20 261.42 L 333.74 257.44 L 333.11 253.49 L 332.07 250.56 L 328.37 253.34 L 326.34 253.33 L 322.07 250.06 L 323.22 248.63 L 322.19 247.50 L 318.48 245.31 L 316.29 244.83 L 315.09 242.62 L 312.54 240.47 L 307.46 241.88 L 302.85 242.57 L 298.87 243.54 L 293.32 243.16 L 290.07 242.73 L 286.74 242.61 L 285.12 238.67 L 283.69 238.20 L 281.51 238.97 L 278.70 240.78 L 275.04 239.92 L 271.93 237.55 L 269.08 236.75 L 266.98 233.70 L 264.65 229.39 L 263.13 229.97 L 261.27 228.94 L 260.25 230.25 L 258.54 230.13 L 259.18 231.57 L 258.94 232.33 L 259.94 234.80 L 261.17 237.62 L 262.64 238.34 L 263.18 239.48 L 265.25 240.80 L 265.48 242.16 L 265.23 243.28 L 265.65 244.38 L 266.54 245.27 L 266.99 246.34 L 267.47 247.14 L 267.17 244.73 L 267.89 242.96 L 268.68 242.57 L 269.63 243.57 L 269.78 245.50 L 269.22 247.48 L 269.85 248.72 L 270.38 248.54 L 270.53 249.44 L 272.86 248.80 L 275.34 248.74 L 277.15 248.73 L 279.04 246.35 L 281.09 244.07 L 282.78 241.89 L 283.53 240.70 L 283.91 240.96 L 283.76 242.34 L 283.43 242.97 L 284.05 245.55 L 285.56 247.70 L 287.32 248.75 L 289.53 248.98 L 291.33 249.42 L 292.85 251.17 L 293.75 252.19 L 294.85 252.49 L 294.92 253.23 L 294.02 255.31 L 293.63 256.28 L 292.46 257.47 L 291.53 259.84 L 290.14 259.80 L 289.57 260.64 L 289.21 262.36 L 289.75 264.52 L 289.49 264.96 L 288.08 265.07 L 286.24 266.47 L 286.05 268.10 L 285.38 268.85 L 283.45 268.97 L 282.28 269.89 L 282.37 271.22 L 280.91 272.24 L 279.17 272.05 L 277.12 273.29 L 275.68 273.56 L 273.43 274.57 L 272.87 276.06 L 272.84 277.18 L 269.72 278.72 L 264.66 280.44 L 261.83 282.83 L 260.42 283.04 L 259.45 282.87 L 257.59 284.26 L 255.54 284.92 L 252.83 285.11 L 252.02 285.30 L 251.31 286.16 L 250.47 286.40 L 249.97 287.23 L 248.37 287.16 L 247.33 287.59 L 245.09 287.41 L 244.26 285.50 L 244.37 283.72 L 243.85 282.75 L 243.24 280.32 L 242.34 278.96 L 242.98 278.81 L 242.67 277.31 L 243.06 276.68 L 242.94 275.24 L 242.54 273.83 L 241.60 272.83 L 241.37 271.51 L 239.76 270.29 L 238.14 267.48 L 237.32 264.77 L 235.22 262.43 L 233.86 261.83 L 231.92 258.60 L 231.66 256.28 L 231.86 254.33 L 230.28 250.58 L 228.93 249.22 L 227.35 248.45 L 226.47 246.50 L 226.67 245.76 L 225.95 243.99 L 225.13 243.21 L 224.15 240.68 L 222.56 237.90 L 221.26 235.53 L 219.83 235.44 L 220.43 233.66 L 220.65 232.52 L 221.12 231.23 L 221.06 230.75 L 220.15 232.01 L 219.32 234.45 L 218.38 236.11 L 217.66 236.63 L 216.80 235.49 L 215.65 233.91 L 214.12 229.02 L 213.80 229.29 L 214.60 232.87 L 216.03 236.33 L 217.76 241.65 L 218.70 243.53 L 219.50 245.46 L 221.91 249.31 L 221.28 249.85 L 221.23 252.01 L 224.58 255.20 L 225.08 255.91 L 225.90 259.21 L 225.19 259.77 L 225.48 263.20 L 226.44 267.20 L 227.60 268.08 L 229.26 269.38 L 230.96 273.27 L 231.75 276.32 L 233.45 277.99 L 237.74 281.22 L 239.50 283.13 L 241.22 285.05 L 242.21 286.19 L 243.79 287.19 L 244.55 288.20 L 244.44 289.55 L 242.59 290.30 L 243.97 291.21 L 245.03 291.82 L 245.66 293.16 L 247.12 294.52 L 248.74 294.54 L 251.81 293.71 L 255.36 293.30 L 258.22 292.26 L 259.83 292.01 L 260.98 291.39 L 262.82 291.23 L 263.86 291.14 L 265.34 290.61 L 267.05 290.22 L 268.56 289.05 L 269.78 288.99 L 269.88 289.89 L 269.62 291.78 L 269.67 293.48 L 269.00 294.67 L 268.15 298.18 L 266.63 301.81 L 264.65 305.94 L 261.86 310.64 L 259.06 314.21 L 255.18 318.51 L 251.87 321.03 L 246.91 324.07 L 243.82 326.35 L 240.20 329.95 L 239.43 331.52 L 238.69 332.21 L 236.37 333.34 L 235.56 334.55 L 234.33 334.73 L 233.87 336.80 L 232.82 337.95 L 232.19 339.87 L 230.87 340.78 L 229.39 344.28 L 229.61 345.91 L 231.72 347.04 L 231.83 347.78 L 230.96 349.46 L 231.16 350.32 L 230.97 351.65 L 232.14 353.45 L 233.53 356.22 L 234.74 356.86 L 235.29 358.11 L 235.20 360.80 L 235.65 363.16 L 235.87 367.28 L 236.46 368.57 L 235.56 370.38 L 234.37 372.11 L 232.41 373.60 L 229.56 374.43 L 226.08 375.47 L 222.71 377.91 L 221.55 378.28 L 219.52 379.85 L 218.30 380.32 L 218.18 382.00 L 219.79 383.89 L 220.51 385.30 L 220.61 385.99 L 221.13 385.91 L 221.25 388.15 L 220.87 389.16 L 221.61 389.60 L 221.26 390.49 L 220.09 391.19 L 217.73 391.76 L 214.34 392.65 L 213.17 393.33 L 213.55 394.26 L 214.32 394.47 L 214.23 395.57 L 213.74 397.03 L 213.68 398.71 L 213.11 399.56 L 211.36 400.40 L 210.87 400.63 L 209.88 401.52 L 209.32 402.45 L 208.06 403.67 L 205.47 405.28 L 203.88 406.17 L 202.11 406.75 L 199.58 407.09 L 198.28 407.00 L 198.11 407.46 L 196.45 406.96 L 195.29 407.12 L 192.37 406.34 L 190.91 406.31 L 189.81 406.04 L 187.49 406.30 L 185.47 406.20 L 184.24 406.60 L 183.13 406.43 L 181.80 405.58 L 180.96 405.38 L 179.53 404.36 L 179.53 404.59 L 178.98 404.03 L 178.51 402.94 L 177.15 401.51 L 177.81 401.33 L 177.14 399.83 L 174.75 397.65 L 172.82 395.67 L 172.81 395.66 L 169.99 392.58 L 167.51 390.56 L 165.96 388.76 L 164.67 386.50 L 163.51 384.74 L 161.56 381.03 L 160.71 378.24 L 160.02 376.87 L 158.73 375.64 L 156.85 373.31 L 154.73 370.03 L 153.79 368.32 L 151.08 365.31 L 150.50 363.31 L 149.91 361.63 L 149.83 359.45 L 150.32 357.30 L 150.27 356.20 L 150.75 354.02 L 151.24 353.09 L 152.56 351.72 L 153.28 350.74 L 153.31 348.78 L 152.98 347.19 L 152.03 345.99 L 151.11 344.12 L 150.26 342.26 L 150.35 341.72 L 151.10 340.82 L 150.01 337.86 L 149.29 335.80 L 147.77 333.62 L 148.00 333.12 L 147.55 332.13 L 146.68 329.74 L 144.27 326.03 L 141.35 322.26 L 139.49 319.29 L 137.80 315.72 L 137.88 314.74 L 138.45 313.95 L 139.11 311.94 L 139.66 309.84 L 139.17 309.23 L 140.16 306.06 L 140.62 303.75 L 139.64 301.40 L 138.44 300.52 L 137.96 298.97 L 137.30 298.32 L 137.38 297.47 L 134.58 297.74 L 133.59 297.27 L 132.56 297.64 L 130.50 296.90 L 129.24 294.51 L 128.54 291.97 L 126.91 289.30 L 125.04 288.68 L 122.87 287.89 L 120.84 287.50 L 118.86 287.42 L 115.05 287.76 L 113.70 288.29 L 111.59 288.31 L 109.66 286.55 L 108.65 286.12 L 107.17 284.81 L 105.79 284.20 L 103.25 283.51 L 101.75 283.68 L 99.66 283.76 L 99.27 283.47 L 98.75 283.22 L 96.82 280.63 L 95.27 277.29 L 93.82 274.66 L 92.78 271.91 L 92.32 271.38 L 91.17 269.33 L 90.45 267.08 L 90.29 265.75 L 90.39 263.32 L 89.90 260.98 L 89.43 259.33 L 89.07 258.63 L 88.75 257.73 L 88.80 256.23 L 88.67 255.38 L 88.29 254.54 L 87.67 252.63 L 87.04 251.93 L 86.85 250.80 L 86.95 250.33 L 86.60 249.32 L 86.64 248.58 L 86.88 246.02 L 87.38 244.80 L 87.30 241.91 L 86.82 240.23 L 87.62 240.16 L 88.89 238.54 L 89.66 237.23 L 89.97 235.47 L 90.81 234.26 L 91.83 231.50 L 92.58 228.33 L 92.88 226.67 L 93.52 225.25 L 93.61 223.50 L 93.29 221.60 L 93.80 220.36 L 94.37 218.99 L 95.23 218.59 L 96.28 217.36 L 96.57 216.26 L 97.89 214.49 L 99.46 213.15 L 100.16 213.02 L 101.26 211.54 L 101.95 209.95 L 103.27 208.46 L 104.75 208.05 L 107.04 205.61 L 108.38 204.94 L 110.00 205.54 L 112.17 204.25 L 113.34 203.93 L 115.84 202.22 L 117.14 198.24 L 118.98 196.02 L 119.96 194.58 L 122.00 193.16 L 124.33 192.70 L 126.18 192.13 L 128.85 189.64 L 130.30 188.09 L 131.55 188.73 L 131.97 190.49 L 133.76 191.08 L 135.31 192.59 L 136.09 192.97 L 138.64 192.10 L 140.91 192.42 L 142.68 191.66 L 144.95 191.47 L 148.50 192.18 L 151.92 193.10 L 152.75 193.90 L 155.18 193.34 L 157.42 194.03 L 157.99 195.01 L 159.51 195.27 L 162.31 194.72 L 163.68 195.52 L 163.04 197.06 L 165.31 196.44 L 165.26 197.08 L 163.61 198.29 L 163.08 199.72 L 163.58 200.71 L 162.36 203.32 L 160.34 204.48 L 160.19 206.31 L 161.35 206.69 L 161.44 208.34 L 162.16 209.07 L 164.57 210.88 L 165.64 210.86 L 167.47 211.89 L 170.27 214.07 L 170.65 217.17 L 172.72 218.29 L 175.93 220.40 L 178.29 222.55 L 179.73 221.96 L 181.30 220.71 L 181.26 218.13 L 182.42 216.72 L 184.60 215.55 L 186.46 215.43 L 189.79 216.68 L 190.38 218.27 L 191.35 218.44 L 192.08 219.12 L 194.62 219.90 L 195.07 221.07 L 198.63 221.51 L 201.08 222.72 L 203.62 224.02 L 204.81 224.68 L 207.06 223.88 L 208.32 223.07 L 210.77 223.05 L 212.67 223.66 L 213.23 225.35 L 214.00 224.34 L 216.13 225.32 L 218.28 225.68 L 219.74 224.97 L 220.65 223.95 L 220.48 223.75 L 221.36 222.27 L 222.15 219.85 L 222.62 219.05 L 222.70 219.02 L 223.93 216.43 L 225.48 214.23 L 225.54 214.12 L 225.52 211.62 L 226.30 210.33 L 225.46 208.80 L 226.58 207.65 L 224.95 207.82 L 222.83 206.93 L 220.82 208.64 L 216.80 208.67 L 214.93 206.75 L 212.16 206.36 L 211.36 207.63 L 209.51 207.82 L 207.32 205.82 L 204.53 205.54 L 203.64 202.17 L 202.18 200.17 L 203.88 197.87 L 202.66 196.15 L 205.97 193.50 L 209.72 193.84 L 211.18 191.57 L 215.71 192.48 L 218.95 190.72 L 221.89 190.08 L 225.90 190.32 L 229.93 192.81 L 233.38 194.22 L 236.31 193.86 L 238.44 194.22 L 241.45 192.65 L 241.88 191.31 L 241.35 189.15 L 240.01 187.95 L 238.69 187.55 L 237.87 186.56 L 235.03 183.81 L 232.45 182.51 L 230.63 180.58 L 232.36 180.18 L 234.52 177.71 L 233.36 176.44 L 236.80 175.35 L 236.79 174.68 L 234.74 175.08 L 232.93 175.23 L 231.32 176.13 L 229.20 176.16 L 227.11 177.17 L 226.98 179.08 L 228.01 179.90 L 230.37 179.87 L 229.80 180.94 L 227.20 181.30 L 223.81 182.85 L 222.61 182.12 L 223.34 180.71 L 220.98 179.60 L 221.48 179.05 L 223.82 178.22 L 223.27 177.46 L 219.92 176.38 L 219.97 175.23 L 217.85 175.40 L 216.70 176.99 L 214.51 179.05 L 214.40 179.85 L 213.17 180.38 L 212.55 180.01 L 211.13 183.64 L 209.66 184.78 L 208.33 186.89 L 208.71 188.75 L 208.75 189.99 L 210.63 191.25 L 210.04 191.96 L 207.16 191.79 L 205.94 192.62 L 203.58 194.05 L 203.15 192.48 L 203.33 191.84 L 201.90 191.55 L 200.74 191.07 L 197.70 191.45 L 198.90 193.45 L 197.57 193.78 L 196.26 193.57 L 195.42 191.76 L 194.81 192.37 L 194.85 194.33 L 195.67 195.99 L 194.60 196.53 L 195.58 198.20 L 196.57 199.30 L 196.19 201.10 L 194.13 199.90 L 194.47 201.63 L 192.84 201.71 L 193.11 204.66 L 191.46 204.43 L 189.78 202.70 L 189.52 200.01 L 189.65 197.85 L 189.11 196.24 L 188.40 194.23 L 188.50 193.31 L 188.17 193.02 L 188.32 192.33 L 187.36 191.04 L 187.60 189.53 L 188.44 187.46 L 189.04 186.57 L 188.81 186.01 L 188.42 185.68 L 188.12 184.56 L 187.37 183.76 L 185.70 182.22 L 184.84 180.86 L 183.22 179.53 L 182.30 176.93 L 182.80 176.80 L 182.36 175.33 L 182.71 174.32 L 181.61 173.54 L 180.47 174.67 L 180.28 173.53 L 180.75 172.52 L 180.84 172.49 L 181.40 172.33 L 180.00 171.51 L 177.96 172.14 L 177.44 173.63 L 176.84 174.41 L 176.86 176.09 L 178.15 178.07 L 178.22 180.80 L 179.66 183.80 L 181.35 184.17 L 181.64 184.96 L 180.81 185.43 L 182.39 186.97 L 183.71 188.25 L 185.12 190.25 L 185.17 190.88 L 184.41 191.90 L 183.60 190.20 L 181.82 189.27 L 180.23 191.06 L 181.49 192.56 L 180.70 194.12 L 179.70 194.10 L 177.63 196.50 L 176.60 196.52 L 176.92 195.57 L 177.92 194.01 L 178.62 193.46 L 178.34 191.47 L 178.19 189.76 L 177.41 189.17 L 177.23 187.69 L 176.04 186.80 L 175.56 185.35 L 174.07 184.76 L 172.96 182.97 L 171.88 180.51 L 171.23 178.41 L 171.89 175.31 L 171.07 174.69 L 169.95 173.26 L 168.88 173.39 L 167.14 174.42 L 166.25 174.39 L 163.73 175.50 L 160.45 173.47 L 157.31 173.47 L 156.20 175.15 L 155.43 176.88 L 152.71 178.18 L 150.07 177.90 L 149.40 178.82 L 147.46 180.00 L 145.54 182.11 L 145.41 184.09 L 143.70 184.98 L 142.35 186.74 L 140.69 186.76 L 138.28 188.49 L 135.99 187.51 L 134.36 186.68 L 132.74 187.21 L 131.52 188.00 L 130.81 187.35 L 130.71 186.04 L 131.12 184.11 L 129.85 182.87 L 128.79 183.28 L 128.17 182.42 L 127.19 182.29 L 128.69 180.15 L 129.56 178.30 L 129.03 177.66 L 129.31 176.37 L 130.54 174.57 L 131.76 173.88 L 132.56 172.79 L 133.91 171.27 L 134.62 170.06 L 134.97 168.89 L 135.50 167.92 L 136.86 165.98 L 137.07 164.46 L 140.42 163.59 L 141.88 165.03 L 143.92 166.04 L 145.27 167.31 L 146.67 167.78 L 149.24 169.04 L 151.09 167.71 L 154.77 162.26 L 155.00 158.67 L 154.79 156.80 L 153.25 154.72 L 154.48 152.71 L 156.75 152.99 L 158.76 154.78 L 160.36 151.55 L 160.98 153.29 L 165.91 152.63 L 167.81 150.61 L 169.50 150.57 L 171.08 150.50 L 172.34 150.05 L 176.21 146.61 L 179.01 146.21 L 180.24 146.69 L 180.89 146.23 L 182.28 146.49 L 182.22 147.17 L 184.08 146.18 L 184.32 145.07 L 185.16 143.56 L 185.44 141.92 L 187.09 139.26 L 187.78 138.64 L 188.69 138.00 L 190.08 138.22 L 191.03 137.66 L 192.66 137.27 L 191.80 138.58 L 190.84 139.30 L 190.58 140.07 L 191.16 140.69 L 190.20 141.57 L 189.92 141.16 L 187.69 142.73 L 187.34 144.14 L 186.77 145.17 L 188.02 146.24 L 187.47 147.18 L 189.39 147.12 L 190.71 146.63 L 192.00 148.16 L 192.35 149.22 L 193.90 148.70 L 197.14 148.04 L 199.70 147.58 L 201.20 148.39 L 201.03 149.09 L 202.69 149.45 L 203.60 148.32 L 206.35 147.87 L 206.92 145.51 L 207.82 143.49 L 209.33 141.95 L 211.24 141.30 L 211.78 143.52 L 213.14 143.69 L 214.23 141.67 L 215.00 140.12 L 214.28 140.36 L 213.61 139.26 L 214.08 137.72 L 216.36 137.30 L 218.49 137.21 L 220.07 137.88 L 221.76 138.01 L 224.02 136.77 L 222.76 135.33 L 219.86 135.16 L 216.78 135.72 L 214.05 135.87 L 213.76 134.31 L 212.68 133.22 L 214.15 130.77 L 214.53 128.38 L 215.88 127.06 L 217.84 125.73 L 222.08 123.56 L 223.17 123.19 L 223.47 122.14 L 222.19 120.74 L 219.71 121.06 L 217.65 122.51 L 217.11 124.02 L 214.01 125.59 L 210.30 127.18 L 207.39 130.45 L 207.46 132.44 L 208.14 134.14 L 205.32 136.76 L 203.43 137.03 L 200.59 141.29 L 198.44 143.57 L 196.62 142.87 L 194.61 144.76 L 192.68 144.42 L 193.56 141.79 L 193.99 138.50 L 195.09 134.59 L 195.13 132.79 L 190.47 134.88 L 188.22 134.90 L 187.23 133.02 L 188.71 130.23 L 192.60 124.60 L 194.90 123.47 L 199.56 122.51 L 203.68 120.79 L 208.12 118.17 L 213.86 114.50 L 216.80 113.24 L 221.45 111.09 L 224.28 110.55 L 225.92 110.96 L 228.42 109.39 L 230.23 109.75 L 232.25 109.56 L 234.94 111.55 L 233.34 112.01 L 234.06 113.56 L 235.46 112.88 L 236.93 114.42 L 239.98 115.20 L 244.14 118.08 L 244.99 119.25 L 244.94 120.86 L 243.36 122.09 L 241.09 122.66 L 235.59 120.44 L 234.57 120.66 L 236.28 122.61 L 235.67 126.31 L 237.35 127.20 L 238.36 127.92 L 238.75 126.71 L 238.06 125.54 L 239.13 124.69 L 242.30 126.40 L 243.55 125.83 L 242.81 123.98 L 246.15 121.66 L 247.37 121.82 L 248.59 122.69 L 249.39 121.01 L 248.34 119.56 L 248.99 118.13 L 248.13 116.65 L 251.54 117.41 L 252.29 118.74 L 250.70 119.05 L 250.73 120.39 L 251.77 121.22 L 253.77 120.66 L 253.98 119.11 L 256.49 117.90 L 260.39 115.66 L 261.30 115.72 L 260.41 117.22 L 261.97 117.37 L 262.66 116.50 L 264.88 116.25 L 266.33 115.13 L 268.13 116.39 L 268.91 114.70 L 267.24 113.51 L 267.55 112.70 L 271.07 112.98 L 272.92 113.47 L 278.28 115.40 L 278.38 114.08 L 276.61 113.09 L 276.32 112.63 L 274.90 112.63 L 274.70 111.51 L 273.23 109.89 L 272.83 109.20 L 273.53 106.95 L 272.97 104.94 L 273.37 104.42 L 276.05 104.49 L 277.06 105.59 L 277.36 107.47 L 278.40 108.02 L 279.73 109.44 L 281.48 112.46 L 283.54 113.56 L 284.05 115.15 L 283.79 118.87 L 285.35 118.93 L 285.31 118.00 L 286.21 117.13 L 285.78 115.94 L 286.01 114.66 L 284.52 113.54 L 284.00 111.98 L 282.74 112.06 L 281.66 110.90 L 280.93 108.58 L 278.48 107.14 L 279.07 105.38 L 277.75 103.98 L 278.14 103.84 L 279.48 104.85 L 280.67 106.91 L 281.94 107.05 L 280.36 105.67 L 281.16 104.51 L 282.81 103.93 L 285.39 104.61 L 283.12 103.19 L 281.07 101.16 L 281.99 100.39 L 283.82 99.91 L 285.06 99.14 L 283.40 98.40 L 282.76 96.96 L 283.42 96.64 L 283.47 95.34 L 284.65 94.48 L 284.17 93.96 L 285.30 93.17 L 286.27 93.31 L 285.99 91.92 L 286.85 91.47 L 285.82 90.78 L 285.06 89.95 L 284.83 88.81 L 286.35 88.80 L 286.55 89.47 L 287.80 89.08 Z" fill="#2b2d31" stroke="#5d6265" stroke-width=".4"/><path d="M 222.98 67.95 L 223.16 67.86 L 224.33 67.53 L 225.04 67.59 L 223.92 67.95 L 223.16 68.02 L 222.98 67.95 Z" fill="#2b2d31" stroke="#5d6265" stroke-width=".4"/><path d="M 233.01 65.47 L 233.85 65.09 L 235.23 65.11 L 235.09 65.38 L 234.30 65.60 L 233.21 65.67 L 233.01 65.47 Z" fill="#2b2d31" stroke="#5d6265" stroke-width=".4"/><path d="M 236.15 95.56 L 234.19 96.10 L 233.33 95.46 L 234.11 95.06 L 234.15 94.41 L 235.68 94.27 L 235.48 95.00 L 236.15 95.56 Z" fill="#2b2d31" stroke="#5d6265" stroke-width=".4"/><path d="M 233.93 66.05 L 234.40 65.79 L 235.42 65.62 L 235.58 65.71 L 235.35 66.00 L 234.97 66.03 L 233.93 66.05 Z" fill="#2b2d31" stroke="#5d6265" stroke-width=".4"/><path d="M 225.17 67.79 L 225.55 67.44 L 226.46 67.40 L 227.42 67.50 L 228.26 67.68 L 227.51 67.86 L 227.09 67.93 L 225.77 67.98 L 225.17 67.79 Z" fill="#2b2d31" stroke="#5d6265" stroke-width=".4"/><path d="M 227.98 67.20 L 226.98 67.07 L 228.12 66.86 L 229.63 66.77 L 230.97 66.48 L 230.90 66.77 L 231.97 66.74 L 232.63 66.96 L 231.35 67.13 L 229.27 67.31 L 227.98 67.20 Z" fill="#2b2d31" stroke="#5d6265" stroke-width=".4"/><path d="M 283.37 87.84 L 282.34 89.67 L 279.52 87.50 L 279.49 87.18 L 279.91 87.11 L 282.32 87.26 L 283.37 87.84 Z" fill="#2b2d31" stroke="#5d6265" stroke-width=".4"/><path d="M 234.71 91.56 L 235.51 93.22 L 233.50 93.65 L 232.11 94.91 L 231.28 95.14 L 229.72 96.59 L 228.86 96.49 L 228.47 95.06 L 229.62 94.56 L 229.21 93.83 L 229.61 92.09 L 230.64 90.68 L 232.62 90.45 L 232.29 91.10 L 233.05 91.25 L 233.79 90.72 L 234.58 90.82 L 234.71 91.56 Z" fill="#2b2d31" stroke="#5d6265" stroke-width=".4"/><path d="M 239.40 90.99 L 240.08 91.75 L 238.70 92.61 L 236.92 92.57 L 235.50 91.99 L 235.78 91.49 L 235.05 91.31 L 235.18 90.41 L 237.11 90.24 L 237.52 90.79 L 238.40 90.35 L 239.40 90.99 Z" fill="#2b2d31" stroke="#5d6265" stroke-width=".4"/><path d="M 253.34 91.40 L 252.64 91.67 L 252.17 91.83 L 252.12 92.13 L 251.49 92.45 L 250.84 92.02 L 251.13 91.44 L 249.92 91.40 L 250.96 91.06 L 251.76 91.02 L 251.92 91.51 L 252.18 91.07 L 252.63 90.75 L 253.49 91.12 L 253.34 91.40 Z" fill="#2b2d31" stroke="#5d6265" stroke-width=".4"/><path d="M 279.99 88.25 L 279.49 88.88 L 277.65 89.04 L 276.04 88.80 L 274.00 87.92 L 273.00 87.86 L 272.30 86.50 L 272.44 85.85 L 274.36 86.18 L 277.68 87.01 L 279.99 88.25 Z" fill="#2b2d31" stroke="#5d6265" stroke-width=".4"/><path d="M 224.66 69.96 L 223.39 70.08 L 223.23 69.73 L 222.27 69.14 L 222.95 68.77 L 224.25 68.43 L 225.66 68.39 L 226.43 68.55 L 226.64 68.79 L 227.46 68.49 L 228.67 68.48 L 229.88 68.61 L 230.48 68.95 L 230.83 69.21 L 230.57 69.39 L 231.23 69.45 L 230.46 69.80 L 228.78 69.72 L 227.64 69.88 L 226.56 70.07 L 224.66 69.96 Z" fill="#2b2d31" stroke="#5d6265" stroke-width=".4"/><path d="M 229.09 73.98 L 228.44 74.37 L 227.75 74.70 L 226.67 74.99 L 225.84 74.98 L 224.82 74.55 L 224.60 74.11 L 224.09 73.93 L 223.71 74.34 L 222.31 73.87 L 221.81 73.53 L 219.81 73.13 L 219.88 72.68 L 219.48 72.52 L 220.12 71.86 L 219.33 72.14 L 219.05 71.97 L 217.40 72.12 L 216.77 71.87 L 216.56 71.49 L 215.68 71.34 L 215.44 70.98 L 214.78 71.00 L 214.18 71.43 L 213.51 71.43 L 213.07 70.72 L 215.01 70.07 L 216.09 69.33 L 217.16 69.00 L 218.30 68.57 L 219.47 68.65 L 219.05 69.11 L 221.00 69.18 L 220.87 69.33 L 218.58 69.80 L 220.78 69.65 L 221.97 69.37 L 222.54 69.65 L 222.37 70.06 L 223.13 70.22 L 224.65 70.08 L 226.07 70.19 L 224.96 70.65 L 224.40 70.76 L 224.81 71.15 L 225.87 70.79 L 226.96 70.18 L 228.41 70.04 L 229.66 70.11 L 230.74 70.09 L 231.59 70.25 L 231.53 70.54 L 231.23 70.71 L 231.02 71.06 L 231.52 71.43 L 231.05 71.57 L 230.04 71.60 L 231.24 71.94 L 231.34 72.18 L 231.23 72.46 L 230.69 72.89 L 230.28 72.93 L 230.20 73.38 L 229.63 73.68 L 229.09 73.98 Z" fill="#2b2d31" stroke="#5d6265" stroke-width=".4"/><path d="M 229.59 80.22 L 228.05 81.83 L 226.57 81.88 L 225.85 81.28 L 224.89 80.41 L 224.37 80.63 L 225.15 81.18 L 224.52 82.01 L 225.78 82.08 L 224.84 82.56 L 222.87 82.91 L 224.49 83.02 L 226.67 83.46 L 226.85 84.17 L 225.82 84.76 L 222.73 84.84 L 221.92 84.99 L 220.61 84.53 L 221.05 85.07 L 218.61 85.64 L 216.49 86.20 L 213.23 87.53 L 211.72 88.66 L 211.09 88.28 L 209.65 88.21 L 208.68 89.41 L 206.30 90.59 L 205.65 90.38 L 203.63 91.95 L 202.59 91.31 L 201.84 92.26 L 200.69 92.63 L 199.71 92.35 L 199.20 91.85 L 197.66 93.24 L 196.37 93.87 L 196.85 92.55 L 195.88 92.72 L 195.63 93.58 L 194.36 94.97 L 192.20 96.32 L 190.89 95.86 L 191.71 94.98 L 192.95 93.66 L 191.07 94.76 L 189.09 95.02 L 189.98 96.21 L 190.40 96.88 L 186.76 97.02 L 183.41 96.95 L 181.41 96.05 L 181.07 95.52 L 179.64 95.55 L 176.12 96.34 L 173.54 96.19 L 173.28 95.87 L 172.31 95.48 L 171.41 95.01 L 169.45 95.38 L 167.36 96.35 L 165.36 96.98 L 162.87 97.13 L 160.60 98.53 L 158.16 99.47 L 155.32 100.62 L 155.11 99.77 L 157.48 97.58 L 157.63 96.26 L 159.32 94.87 L 162.25 93.14 L 166.16 90.53 L 168.18 89.46 L 170.88 88.35 L 173.90 86.59 L 176.05 86.03 L 177.24 85.33 L 180.60 84.71 L 181.51 85.09 L 182.75 84.88 L 185.14 84.25 L 184.19 84.05 L 183.81 83.92 L 183.52 83.63 L 184.75 82.77 L 186.84 82.18 L 188.41 81.93 L 188.30 82.33 L 187.19 83.45 L 189.40 82.17 L 190.60 81.52 L 190.34 81.21 L 191.26 80.68 L 193.95 80.48 L 195.22 79.99 L 197.52 79.25 L 201.05 78.22 L 202.51 77.59 L 203.81 77.40 L 206.19 76.31 L 206.92 75.63 L 207.51 74.83 L 208.03 74.11 L 209.34 73.71 L 211.74 73.14 L 211.84 73.82 L 211.43 74.36 L 213.45 73.19 L 215.34 72.60 L 216.41 72.64 L 216.72 73.53 L 217.29 74.36 L 218.32 74.42 L 219.99 73.81 L 221.00 74.00 L 222.51 74.68 L 222.62 74.96 L 224.08 74.86 L 224.60 75.28 L 224.77 75.82 L 224.54 76.37 L 223.45 76.64 L 225.11 76.98 L 223.81 77.53 L 223.52 77.82 L 222.44 78.35 L 224.23 77.68 L 225.63 77.56 L 227.59 77.89 L 227.53 78.47 L 228.79 78.49 L 229.28 78.97 L 229.59 80.22 Z" fill="#2b2d31" stroke="#5d6265" stroke-width=".4"/><g fill="none" stroke="#f97328" stroke-width="1.2" opacity=".8"><path d="M 112 167 Q 260 104 399 212 M 119 226 Q 233 372 372 299 M 214 77 Q 334 155 355 370 M 80 279 Q 194 199 375 165"/></g><g fill="#ffac75"><circle cx="112" cy="167" r="3"/><circle cx="399" cy="212" r="3"/><circle cx="355" cy="370" r="3"/><circle cx="375" cy="165" r="3"/></g></svg>